<?xml version="1.0" encoding="utf-8"?>
<!-- Generator: Adobe Illustrator 24.1.2, SVG Export Plug-In . SVG Version: 6.00 Build 0)  -->
<svg version="1.1" id="Capa_1" xmlns="http://www.w3.org/2000/svg" xmlns:xlink="http://www.w3.org/1999/xlink" x="0px" y="0px"
	 viewBox="0 0 1400 457.7" style="enable-background:new 0 0 1400 457.7;" xml:space="preserve">
<style type="text/css">
	.st0{fill:#FFFFFF;}
</style>
<g>
	<g>
		<g>
			<path class="st0" d="M1357.7,150.6h9.1c4.2,0,6.3,1.9,6.3,5.2c0,3.7-2.5,4.6-3.2,4.8v0.1c1.2,0.1,2.8,1,2.8,4
				c0,2.3,0.3,4.3,1.1,5h-3.6c-0.5-0.8-0.5-1.9-0.5-2.8c0-3.5-0.7-5.1-3.8-5.1h-4.9v7.9h-3.3V150.6z M1361,159.3h5.5
				c2.1,0,3.3-1,3.3-3.1c0-2.5-1.6-2.9-3.3-2.9h-5.4V159.3z"/>
		</g>
		<g>
			<path class="st0" d="M1365.2,179.6c-10.7,0-19.5-8.7-19.5-19.5c0-10.7,8.7-19.5,19.5-19.5s19.5,8.7,19.5,19.5
				C1384.7,170.9,1376,179.6,1365.2,179.6z M1365.2,144.3c-8.7,0-15.8,7.1-15.8,15.9s7.1,15.9,15.8,15.9s15.8-7.1,15.8-15.9
				S1374,144.3,1365.2,144.3z"/>
		</g>
	</g>
	<g>
		<path class="st0" d="M124.6,23.8h41.8l24,155h-44.9l-3.7-27.5H82.4l-20.7,27.5H15.3L124.6,23.8z M138.3,118.2L132.8,74l-28.8,44.2
			C103.9,118.2,138.3,118.2,138.3,118.2z"/>
		<path class="st0" d="M189.9,114c0-49,40-92.2,98.7-92.2c30.8,0,53.2,12.5,63.8,26.2l-28.6,27.7c-9-9-21.5-15.8-38-15.8
			c-31,0-52.3,24-52.3,52.3c0,21.6,15.6,32.8,34.5,32.8c8.6,0,15.2-1.8,20.5-4.2l6.2-20.7h-29.7l8.1-31.2h70.6l-22,77.6
			c-15.2,8.8-35,15.4-57.6,15.4C227.3,182,189.9,161.3,189.9,114z"/>
		<path class="st0" d="M372,24.9h58.1c25.7,0,42.7,5.7,53,16c8.1,8.1,11.9,19.1,11.9,31.5c0,25.7-14.7,46-46.2,54.5l23.8,51.9h-47.1
			L405,132.3h-18.9l-12.5,46.6h-42.9L372,24.9z M419.3,98.8c19.1,0,31.7-8.1,31.7-21.3c0-4.2-1.3-7.5-4-10.3
			c-3.5-3.5-9.9-5.3-18.9-5.3H405l-10.1,36.9H419.3z"/>
		<path class="st0" d="M491,112.7c0-46.8,38.3-90.6,91.7-90.6c43.8,0,73.5,29.9,73.5,69.1c0,46.8-38.3,90.6-91.7,90.6
			C520.7,181.7,491,151.8,491,112.7z M612.6,94.4c0-19.6-11.9-34.1-33.7-34.1c-26.8,0-44.4,26.2-44.4,49c0,19.6,11.9,34.1,33.7,34.1
			C595.2,143.5,612.6,117.3,612.6,94.4z"/>
		<path class="st0" d="M637.9,153.4l27.5-28.4c15,13.9,30.6,20.9,47.5,20.9c10.1,0,17.4-4.4,17.4-11.4c0-5.9-4.2-9-25.7-17.4
			c-24.4-9.2-40-19.8-40-42.4c0-30.6,27.7-52.3,65.3-52.3c27,0,48.4,8.8,63.1,22.9l-26.4,29.5c-11.7-10.1-25.1-16.9-40.7-16.9
			c-10.3,0-16.7,4.8-16.7,11s4.6,8.4,25.7,16.7c23.8,9,40,19.8,40,42.9c0,31.7-27.3,53.2-65.5,53.2
			C679.2,181.5,654.4,171.2,637.9,153.4z"/>
		<path class="st0" d="M781.2,127.9c0-7.7,1.3-16.3,3.5-24.6l21.1-78.3H849l-21.8,81.4c-1.3,4.8-2.2,9.5-2.2,14.5
			c0,13.9,8.6,22.4,24,22.4c8.1,0,15.4-2.9,20.7-8.1c5.7-5.5,9.7-13.2,13-25.5l22.9-84.7h43.1L924.2,116c-5.5,20.2-13.2,35.2-24,46
			c-13.6,13.6-33,19.8-56.7,19.8C803.9,181.7,781.2,161.7,781.2,127.9z"/>
		<path class="st0" d="M960.9,24.9h50.4c25.1,0,41.6,5.1,52.8,16.3c8.1,8.1,12.1,18.7,12.1,31.5c0,38.3-31,62-76.5,62h-25.3
			l-11.9,44.2h-42.9L960.9,24.9z M999.2,101.5c21.1,0,33.2-9.5,33.2-24c0-4.2-1.5-7.9-4.4-10.8c-4.2-4.2-10.3-5.9-18.3-5.9h-15.8
			l-10.8,40.7L999.2,101.5L999.2,101.5z"/>
		<path class="st0" d="M1095.5,24.9h123.4l-9.9,36.3H1128l-6.4,23.3h73.4l-9,33.7h-73.4l-6.6,24.4h82.3l-9.7,36.3h-124.5
			L1095.5,24.9z"/>
		<path class="st0" d="M1229.4,24.9h58.1c25.7,0,42.7,5.7,53,16c8.1,8.1,11.9,19.1,11.9,31.5c0,25.7-14.7,46-46.2,54.5l23.8,51.9
			h-47.1l-20.4-46.6h-18.9l-12.5,46.6h-42.9L1229.4,24.9z M1276.7,98.8c19.1,0,31.7-8.1,31.7-21.3c0-4.2-1.3-7.5-4-10.3
			c-3.5-3.5-9.9-5.3-18.9-5.3h-23.1l-10.1,36.9H1276.7z"/>
	</g>
	<path class="st0" d="M1263.3,188.5C1263.3,188.5,1263.3,188.5,1263.3,188.5c-0.1-0.1-0.1-0.1-0.1-0.1
		c-16.3-27.6-48.2-46.3-84.8-46.3c-28.9,0-54.7,11.6-72.4,30.1C967.3,289.9,781.8,361.8,578,361.8c-181.8,0-349-57.2-481.5-153.1
		C238.5,348.4,441,435.8,665.6,435.8c127.1,0,248.3-26.4,353.9-76.5c1.5-0.8,2.4-1.3,2.4-1.3s100.2-41.8,168.1-115.6
		c0,0-32.5,75.4-134.1,114.2c4,0.4,8,0.8,12,1.1c0,0,89.2,15.6,161-46.8c10.6-9.8,26-26.8,36.8-50.5v0
		C1278.9,229.5,1272.6,205,1263.3,188.5z"/>
</g>
</svg>
