<?xml version="1.0" encoding="utf-8"?>
<!-- Generator: Adobe Illustrator 24.1.2, SVG Export Plug-In . SVG Version: 6.00 Build 0)  -->
<svg version="1.1" id="Capa_1" xmlns="http://www.w3.org/2000/svg" xmlns:xlink="http://www.w3.org/1999/xlink" x="0px" y="0px"
	 viewBox="0 0 1400 457.69" style="enable-background:new 0 0 1400 457.69;" xml:space="preserve">
<style type="text/css">
	.st0{fill:#002F87;}
	.st1{fill:#EE7623;}
</style>
<g>
	<g>
		<g>
			<path class="st0" d="M1357.65,150.63h9.13c4.2,0,6.32,1.93,6.32,5.17c0,3.67-2.52,4.61-3.16,4.82v0.05
				c1.15,0.13,2.84,1.04,2.84,4.04c0,2.25,0.32,4.26,1.05,5.04h-3.59c-0.51-0.83-0.51-1.88-0.51-2.81c0-3.51-0.72-5.06-3.8-5.06
				H1361v7.88h-3.35V150.63z M1361,159.33h5.49c2.14,0,3.27-1.02,3.27-3.05c0-2.47-1.58-2.92-3.32-2.92H1361V159.33z"/>
		</g>
		<g>
			<path class="st0" d="M1365.24,179.61c-10.73,0-19.46-8.73-19.46-19.46c0-10.73,8.73-19.46,19.46-19.46
				c10.73,0,19.46,8.73,19.46,19.46C1384.7,170.88,1375.98,179.61,1365.24,179.61z M1365.24,144.3c-8.74,0-15.85,7.11-15.85,15.85
				c0,8.74,7.11,15.85,15.85,15.85s15.85-7.11,15.85-15.85C1381.09,151.41,1373.98,144.3,1365.24,144.3z"/>
		</g>
	</g>
	<g>
		<path class="st0" d="M124.62,23.84h41.78l23.97,155.04h-44.86l-3.74-27.49H82.39L61.7,178.88H15.3L124.62,23.84z M138.25,118.18
			l-5.5-44.2l-28.81,44.2H138.25z"/>
		<path class="st0" d="M189.93,114.01c0-49.04,40.03-92.15,98.74-92.15c30.79,0,53.22,12.54,63.78,26.17l-28.59,27.71
			c-9.02-9.02-21.55-15.83-38.05-15.83c-31.01,0-52.34,23.97-52.34,52.34c0,21.55,15.61,32.77,34.53,32.77
			c8.58,0,15.17-1.76,20.45-4.18l6.16-20.67h-29.69l8.14-31.23h70.59l-21.99,77.63c-15.17,8.8-34.97,15.39-57.62,15.39
			C227.31,181.96,189.93,161.29,189.93,114.01z"/>
		<path class="st0" d="M372.01,24.94h58.06c25.73,0,42.66,5.72,53,16.05c8.14,8.14,11.88,19.13,11.88,31.45
			c0,25.73-14.73,45.96-46.18,54.54l23.75,51.9h-47.06L405,132.26h-18.91l-12.54,46.62h-42.88L372.01,24.94z M419.29,98.83
			c19.13,0,31.67-8.14,31.67-21.33c0-4.18-1.32-7.48-3.96-10.34c-3.52-3.52-9.9-5.28-18.91-5.28H405l-10.12,36.95H419.29z"/>
		<path class="st0" d="M490.97,112.69c0-46.84,38.26-90.61,91.71-90.61c43.76,0,73.45,29.91,73.45,69.05
			c0,46.84-38.27,90.61-91.71,90.61C520.66,181.74,490.97,151.83,490.97,112.69z M612.58,94.43c0-19.57-11.88-34.09-33.65-34.09
			c-26.83,0-44.43,26.17-44.43,49.04c0,19.57,11.88,34.09,33.65,34.09C595.21,143.47,612.58,117.3,612.58,94.43z"/>
		<path class="st0" d="M637.87,153.37L665.36,125c14.96,13.85,30.57,20.89,47.5,20.89c10.12,0,17.37-4.4,17.37-11.44
			c0-5.94-4.18-9.02-25.73-17.37c-24.41-9.24-40.03-19.79-40.03-42.44c0-30.57,27.71-52.34,65.32-52.34
			c27.05,0,48.38,8.8,63.12,22.87l-26.39,29.47c-11.65-10.12-25.07-16.93-40.68-16.93c-10.34,0-16.71,4.84-16.71,11
			c0,6.16,4.62,8.36,25.73,16.71c23.75,9.02,40.03,19.79,40.03,42.88c0,31.67-27.27,53.22-65.54,53.22
			C679.21,181.52,654.36,171.18,637.87,153.37z"/>
		<path class="st0" d="M781.24,127.86c0-7.7,1.32-16.27,3.52-24.63l21.11-78.29h43.1l-21.77,81.37c-1.32,4.84-2.2,9.46-2.2,14.51
			c0,13.86,8.58,22.43,23.97,22.43c8.14,0,15.39-2.86,20.67-8.14c5.72-5.5,9.68-13.19,12.98-25.51l22.87-84.67h43.1l-24.41,91.05
			c-5.5,20.23-13.19,35.19-23.97,45.96c-13.63,13.64-32.99,19.79-56.74,19.79C803.89,181.74,781.24,161.73,781.24,127.86z"/>
		<path class="st0" d="M960.91,24.94h50.36c25.07,0,41.57,5.06,52.78,16.27c8.14,8.14,12.1,18.69,12.1,31.45
			c0,38.27-31.01,62.02-76.53,62.02h-25.29l-11.88,44.2h-42.88L960.91,24.94z M999.17,101.47c21.11,0,33.21-9.46,33.21-23.97
			c0-4.18-1.54-7.92-4.4-10.78c-4.18-4.18-10.34-5.94-18.25-5.94H993.9l-10.78,40.68H999.17z"/>
		<path class="st0" d="M1095.49,24.94h123.38l-9.9,36.29h-80.93l-6.38,23.31h73.45l-9.02,33.65h-73.45l-6.6,24.41h82.25l-9.68,36.29
			h-124.47L1095.49,24.94z"/>
		<path class="st0" d="M1229.41,24.94h58.06c25.73,0,42.66,5.72,53,16.05c8.14,8.14,11.88,19.13,11.88,31.45
			c0,25.73-14.73,45.96-46.18,54.54l23.75,51.9h-47.06l-20.45-46.62h-18.91l-12.54,46.62h-42.88L1229.41,24.94z M1276.69,98.83
			c19.13,0,31.67-8.14,31.67-21.33c0-4.18-1.32-7.48-3.96-10.34c-3.52-3.52-9.9-5.28-18.91-5.28h-23.09l-10.12,36.95H1276.69z"/>
	</g>
	<path class="st1" d="M1263.32,188.52c-0.02-0.03-0.03-0.06-0.05-0.09c0-0.01-0.01-0.01-0.01-0.02
		c-16.33-27.59-48.18-46.32-84.79-46.32c-28.86,0-54.74,11.65-72.41,30.1c-138.76,117.68-324.27,189.6-528.08,189.6
		c-181.81,0-349.05-57.22-481.55-153.11c142.09,139.76,344.53,227.15,569.21,227.15c127.12,0,248.31-26.44,353.91-76.53
		c1.5-0.79,2.42-1.25,2.42-1.25s100.16-41.84,168.11-115.6c0,0-32.46,75.38-134.07,114.17c3.96,0.37,8,0.78,12.01,1.15
		c0,0,89.22,15.63,160.97-46.84c10.59-9.78,25.99-26.76,36.76-50.48c0,0,0-0.01,0-0.01
		C1278.91,229.47,1272.57,204.99,1263.32,188.52z"/>
</g>
</svg>
